<svg width="32" height="32" viewBox="0 0 32 32" fill="none" xmlns="http://www.w3.org/2000/svg">
<rect width="32" height="32" rx="16" fill="white"/>
<rect x="0.5" y="0.5" width="31" height="31" rx="15.5" stroke="#161823" stroke-opacity="0.12"/>
<path fill-rule="evenodd" clip-rule="evenodd" d="M16.2404 11.4072C15.0856 11.4072 13.9851 12.1469 13.3342 13.5796C13.1967 13.8822 12.8593 14.055 12.544 13.9499L11.4022 13.5693C11.0869 13.4642 10.9143 13.1221 11.0429 12.8156C11.9611 10.6267 13.8135 9 16.2404 9C18.869 9 21 11.131 21 13.7596C21 15.1466 20.2709 16.4987 19.325 17.4696C18.4819 18.3351 17.1369 19.0512 15.5831 19.2015C15.2523 19.2335 14.9821 18.9611 14.9821 18.6287V17.4251C14.9821 17.0928 15.2531 16.8267 15.5812 16.7732C16.3238 16.652 17.0904 16.3138 17.6008 15.7899C18.2551 15.1182 18.5928 14.3366 18.5928 13.7596C18.5928 12.4604 17.5396 11.4072 16.2404 11.4072ZM16.1857 24.0448C15.1886 24.0448 14.3803 23.2365 14.3803 22.2395C14.3803 21.2424 15.1886 20.4341 16.1857 20.4341C17.1827 20.4341 17.991 21.2424 17.991 22.2395C17.991 23.2365 17.1827 24.0448 16.1857 24.0448Z" fill="#161823" fill-opacity="0.75"/>
</svg>
